<svg width="18" height="18" viewBox="0 0 18 18" fill="none" xmlns="http://www.w3.org/2000/svg">
<path d="M2.93462 7.54223C3.27422 7.77653 3.35978 8.24249 3.12548 8.58274C2.89053 8.92234 2.42457 9.00724 2.08497 8.77294C0.785155 7.88051 0 6.39839 0 4.81097C0 3.5796 0.469909 2.34823 1.40907 1.40907C2.34757 0.469909 3.5796 0 4.81031 0C6.04102 0 7.27239 0.469909 8.21155 1.40907C8.41887 1.61572 8.60643 1.8441 8.77228 2.08497C9.00658 2.42523 8.92168 2.89119 8.58208 3.12548C8.24183 3.35978 7.77587 3.27488 7.54157 2.93528C7.4264 2.76746 7.29477 2.61411 7.1513 2.46998C6.50501 1.82369 5.65733 1.50055 4.81031 1.50055C3.96329 1.50055 3.11561 1.82369 2.46932 2.46998C1.82369 3.11561 1.49989 3.96395 1.49989 4.81097C1.49989 5.89623 2.04088 6.92819 2.93462 7.54223ZM4.88731 3.93565L16.7278 8.00622C17.1194 8.14048 17.3274 8.56695 17.1931 8.95854C17.1194 9.17506 16.9555 9.33499 16.7574 9.41265L11.5305 11.5318L9.40936 16.766C9.25404 17.1497 8.81704 17.334 8.43334 17.1793C8.22472 17.0944 8.07466 16.9259 8.00622 16.7278L3.93499 4.88797C3.80139 4.49638 4.00936 4.06991 4.40095 3.93565C4.56548 3.87971 4.73528 3.88366 4.88731 3.93565ZM14.3473 8.77294L5.85214 5.85214L8.77294 14.3473L10.2603 10.6776C10.3347 10.4933 10.4788 10.3413 10.6743 10.2623L14.3473 8.77294Z" fill="#7F87A4"/>
</svg>
