<svg width="19" height="18" viewBox="0 0 19 18" fill="none" xmlns="http://www.w3.org/2000/svg">
<path fill-rule="evenodd" clip-rule="evenodd" d="M16.5484 0H6.96774C6.42875 0 5.91184 0.214112 5.53072 0.595235C5.1496 0.976357 4.93548 1.49327 4.93548 2.03226V5.22581C4.93548 5.70683 5.32543 6.09677 5.80645 6.09677C6.28747 6.09677 6.67742 5.70683 6.67742 5.22581V2.03226C6.67742 1.95526 6.70801 1.88141 6.76245 1.82697C6.8169 1.77252 6.89074 1.74194 6.96774 1.74194H16.5484C16.6254 1.74194 16.6992 1.77252 16.7537 1.82697C16.8081 1.88141 16.8387 1.95526 16.8387 2.03226V15.9677C16.8387 16.0447 16.8081 16.1186 16.7537 16.173C16.6992 16.2275 16.6254 16.2581 16.5484 16.2581H10.7419C10.2609 16.2581 9.87097 16.648 9.87097 17.129C9.87097 17.6101 10.2609 18 10.7419 18H16.5484C17.0874 18 17.6043 17.7859 17.9854 17.4048C18.3665 17.0236 18.5806 16.5067 18.5806 15.9677V2.03226C18.5806 1.49327 18.3665 0.976357 17.9854 0.595235C17.6043 0.214112 17.0874 0 16.5484 0ZM14.0806 10.1613C14.6418 10.1613 15.0968 9.70635 15.0968 9.14516C15.0968 8.58397 14.6418 8.12903 14.0806 8.12903C13.5195 8.12903 13.0645 8.58397 13.0645 9.14516C13.0645 9.70635 13.5195 10.1613 14.0806 10.1613ZM6.3871 18H2.03226C1.49327 18 0.976357 17.7859 0.595235 17.4048C0.214112 17.0236 0 16.5067 0 15.9677V13.9355C0 13.3965 0.214112 12.8796 0.595235 12.4985C0.976357 12.1173 1.49327 11.9032 2.03226 11.9032H4.93548V10.7419C4.93548 9.97195 5.24136 9.23351 5.78582 8.68904C6.33028 8.14458 7.06873 7.83871 7.83871 7.83871C8.60869 7.83871 9.34714 8.14458 9.8916 8.68904C10.4361 9.23351 10.7419 9.97195 10.7419 10.7419C10.7419 11.223 10.352 11.6129 9.87097 11.6129C9.38995 11.6129 9 11.223 9 10.7419C9 10.4339 8.87765 10.1386 8.65987 9.92078C8.44208 9.703 8.1467 9.58065 7.83871 9.58065C7.53072 9.58065 7.23534 9.703 7.01755 9.92078C6.79977 10.1386 6.67742 10.4339 6.67742 10.7419V11.9265C7.16069 11.9962 7.60269 12.2376 7.92256 12.6065C8.24243 12.9755 8.41878 13.4472 8.41936 13.9355V15.9677C8.41936 16.5067 8.20524 17.0236 7.82412 17.4048C7.443 17.7859 6.92609 18 6.3871 18ZM1.82697 13.7302C1.77252 13.7846 1.74194 13.8585 1.74194 13.9355V15.9677C1.74194 16.0447 1.77252 16.1186 1.82697 16.173C1.88142 16.2275 1.95526 16.2581 2.03226 16.2581H6.3871C6.4641 16.2581 6.53794 16.2275 6.59239 16.173C6.64683 16.1186 6.67742 16.0447 6.67742 15.9677V13.9355C6.67742 13.8585 6.64683 13.7846 6.59239 13.7302C6.53794 13.6757 6.4641 13.6452 6.3871 13.6452H2.03226C1.95526 13.6452 1.88142 13.6757 1.82697 13.7302Z" fill="#7F87A4"/>
</svg>
