<svg width="19" height="20" viewBox="0 0 19 20" fill="none" xmlns="http://www.w3.org/2000/svg">
<path d="M4.61324 8.73372C4.51609 8.69809 4.41893 8.66895 4.31853 8.64304V1.64771C4.31853 1.47593 4.25029 1.31118 4.12882 1.18971C4.00735 1.06824 3.8426 1 3.67082 1C3.49904 1 3.33429 1.06824 3.21282 1.18971C3.09135 1.31118 3.0231 1.47593 3.0231 1.64771V8.64304C2.86725 8.68132 2.71542 8.73446 2.5697 8.80173C2.06462 9.02949 1.64306 9.40899 1.36367 9.88746C1.08428 10.3659 0.960949 10.9196 1.01082 11.4714C1.0607 12.0232 1.2813 12.5458 1.64195 12.9664C2.0026 13.387 2.48536 13.6848 3.0231 13.8183V18.3523C3.0231 18.5241 3.09135 18.6888 3.21282 18.8103C3.33429 18.9318 3.49904 19 3.67082 19C3.8426 19 4.00735 18.9318 4.12882 18.8103C4.25029 18.6888 4.31853 18.5241 4.31853 18.3523V13.8183C4.87101 13.6809 5.36508 13.3705 5.72854 12.9323C6.09201 12.4941 6.30582 11.9512 6.33874 11.3829C6.37166 10.8145 6.22197 10.2505 5.91152 9.77334C5.60108 9.29613 5.14616 8.93072 4.61324 8.73048V8.73372ZM4.23757 12.4872C4.0504 12.5722 3.84658 12.6141 3.64107 12.61C3.43557 12.6059 3.23359 12.5558 3.04998 12.4634C2.86637 12.371 2.70579 12.2387 2.58002 12.0761C2.45425 11.9135 2.36649 11.7248 2.32319 11.5239C2.27988 11.3229 2.28213 11.1149 2.32977 10.9149C2.37741 10.715 2.46922 10.5282 2.59847 10.3684C2.72773 10.2086 2.89114 10.0797 3.0767 9.99131C3.26226 9.90291 3.46527 9.85719 3.67082 9.8575C3.83696 9.85744 4.00167 9.88819 4.15661 9.94818C4.41162 10.0436 4.63253 10.2126 4.79126 10.4338C4.94999 10.655 5.03937 10.9184 5.04805 11.1906C5.05673 11.4627 4.98431 11.7313 4.84 11.9622C4.69569 12.193 4.48599 12.3758 4.23757 12.4872Z" fill="#7F87A4" stroke="#7F87A4" stroke-width="0.2"/>
<path d="M16.5898 10.0291C16.4927 9.99352 16.3955 9.96438 16.2951 9.93847V1.64771C16.2951 1.47593 16.2269 1.31118 16.1054 1.18971C15.9839 1.06824 15.8192 1 15.6474 1C15.4756 1 15.3108 1.06824 15.1894 1.18971C15.0679 1.31118 14.9997 1.47593 14.9997 1.64771V9.93847C14.8439 9.97721 14.6922 10.0303 14.5463 10.0972C14.0412 10.3249 13.6196 10.7044 13.3402 11.1829C13.0608 11.6614 12.9375 12.215 12.9874 12.7668C13.0373 13.3186 13.2579 13.8412 13.6185 14.2618C13.9792 14.6824 14.4619 14.9802 14.9997 15.1137V18.3523C14.9997 18.5241 15.0679 18.6888 15.1894 18.8103C15.3108 18.9318 15.4756 19 15.6474 19C15.8192 19 15.9839 18.9318 16.1054 18.8103C16.2269 18.6888 16.2951 18.5241 16.2951 18.3523V15.1137C16.8476 14.9763 17.3416 14.6659 17.7051 14.2277C18.0686 13.7896 18.2824 13.2466 18.3153 12.6783C18.3482 12.11 18.1985 11.546 17.8881 11.0688C17.5776 10.5916 17.1227 10.2261 16.5898 10.0259V10.0291ZM16.2141 13.7827C16.027 13.8676 15.8231 13.9096 15.6176 13.9054C15.4121 13.9013 15.2102 13.8512 15.0265 13.7588C14.8429 13.6664 14.6824 13.5341 14.5566 13.3715C14.4308 13.2089 14.3431 13.0202 14.2998 12.8193C14.2564 12.6184 14.2587 12.4103 14.3063 12.2103C14.354 12.0104 14.4458 11.8236 14.575 11.6638C14.7043 11.504 14.8677 11.3751 15.0533 11.2867C15.2388 11.1983 15.4418 11.1526 15.6474 11.1529C15.8135 11.1529 15.9782 11.1836 16.1332 11.2436C16.3882 11.339 16.6091 11.508 16.7678 11.7292C16.9266 11.9505 17.0159 12.2139 17.0246 12.486C17.0333 12.7581 16.9609 13.0267 16.8166 13.2576C16.6723 13.4885 16.4626 13.6712 16.2141 13.7827Z" fill="#7F87A4" stroke="#7F87A4" stroke-width="0.2"/>
<path d="M12.0907 5.3235C11.9233 4.95908 11.676 4.63707 11.367 4.3814C11.0581 4.12573 10.6955 3.94297 10.3062 3.84671V1.64771C10.3062 1.47593 10.238 1.31118 10.1165 1.18971C9.99506 1.06824 9.83031 1 9.65853 1C9.48674 1 9.32199 1.06824 9.20052 1.18971C9.07905 1.31118 9.01081 1.47593 9.01081 1.64771V3.84671C8.85534 3.88489 8.7036 3.93691 8.55741 4.00216C8.07657 4.22026 7.67113 4.57594 7.39227 5.0243C7.11342 5.47265 6.97366 5.99357 6.99064 6.5213C7.00762 7.04902 7.18057 7.55988 7.48767 7.98938C7.79477 8.41888 8.22223 8.74777 8.7161 8.93451C8.81236 8.97172 8.91077 9.00309 9.01081 9.02843V18.3523C9.01081 18.5241 9.07905 18.6888 9.20052 18.8103C9.32199 18.9318 9.48674 19 9.65853 19C9.83031 19 9.99506 18.9318 10.1165 18.8103C10.238 18.6888 10.3062 18.5241 10.3062 18.3523V9.02843C10.4616 8.98978 10.6133 8.93777 10.7596 8.87298C11.4051 8.58046 11.9082 8.04377 12.1583 7.38072C12.4085 6.71767 12.3853 5.98244 12.0939 5.33645L12.0907 5.3235ZM10.954 6.9104C10.8239 7.25134 10.5644 7.52707 10.232 7.67751C9.89958 7.82796 9.52116 7.84091 9.17922 7.71357C8.92561 7.61631 8.70635 7.44636 8.54893 7.22502C8.39151 7.00368 8.30292 6.7408 8.29427 6.46932C8.28563 6.19784 8.35731 5.92985 8.50033 5.69894C8.64335 5.46803 8.85135 5.28448 9.09825 5.17128C9.27477 5.09321 9.46551 5.05242 9.65853 5.05146C9.8814 5.05042 10.1012 5.10352 10.299 5.2062C10.4968 5.30887 10.6667 5.45805 10.7942 5.64091C10.9216 5.82376 11.0027 6.03483 11.0305 6.25596C11.0584 6.47709 11.0321 6.70167 10.954 6.9104Z" fill="#7F87A4" stroke="#7F87A4" stroke-width="0.2"/>
</svg>
