<svg width="11" height="9" viewBox="0 0 11 9" fill="none" xmlns="http://www.w3.org/2000/svg">
<path fill-rule="evenodd" clip-rule="evenodd" d="M4.83466 0.212905L4.78891 0.161091C4.59064 -0.0371748 4.27867 -0.0524262 4.06291 0.115337L4.01109 0.161091L0.161091 4.01109L0.138323 4.03527L0.107984 4.07258L0.0685692 4.13377L0.039174 4.19577L0.0197148 4.2537L0.00379897 4.33505L0 4.4L0.00153331 4.44138L0.011132 4.5104L0.027356 4.57168L0.0515204 4.63277L0.0802975 4.68639L0.120829 4.744L0.161091 4.78891L4.01109 8.63891C4.22588 8.8537 4.57412 8.8537 4.78891 8.63891C4.98717 8.44064 5.00243 8.12867 4.83466 7.91291L4.78891 7.86109L1.8788 4.95H10.45C10.7538 4.95 11 4.70376 11 4.4C11 4.09624 10.7538 3.85 10.45 3.85H1.8777L4.78891 0.938909C4.98717 0.740642 5.00243 0.428666 4.83466 0.212905L4.78891 0.161091L4.83466 0.212905Z" fill="#7F87A4"/>
</svg>
