<svg width="21" height="26" viewBox="0 0 21 26" fill="none" xmlns="http://www.w3.org/2000/svg">
<path d="M10.6 25C9.62032 25 8.77774 24.413 8.40478 23.5715C8.18099 23.0666 8.64771 22.6 9.2 22.6H12C12.5523 22.6 13.019 23.0666 12.7952 23.5715C12.4223 24.413 11.5797 25 10.6 25ZM20.2 20.4C20.2 20.9523 19.7523 21.4 19.2 21.4H2C1.44771 21.4 1 20.9523 1 20.4V19.618C1 19.2393 1.214 18.893 1.55279 18.7236L2.84721 18.0764C3.186 17.907 3.4 17.5607 3.4 17.182V11.2C3.4 7.39748 4.82857 4.81845 7.4437 3.84477C7.87779 3.68314 8.2 3.28903 8.2 2.82583V2C8.2 1.44772 8.64771 1 9.2 1H9.7924C10.6178 1 11.1323 1.98804 10.8814 2.77442C10.6943 3.36075 10.5981 3.97641 10.6 4.6C10.6 4.87925 10.6192 5.15814 10.6576 5.43469C10.6625 5.46973 10.6354 5.5012 10.6 5.5012V5.5012C9.13583 5.40637 7.72361 6.06118 6.85 7.24C6.10305 8.42147 5.73656 9.80366 5.8 11.2V18C5.8 18.5523 6.24771 19 6.8 19H14.4C14.9523 19 15.4 18.5523 15.4 18V11.2V11.2C15.4 10.839 15.7278 10.553 16.0875 10.5835C16.414 10.6112 16.7422 10.6123 17.0689 10.5869C17.4475 10.5574 17.8 10.8286 17.8 11.2084V11.2084V17.182C17.8 17.5607 18.014 17.907 18.3528 18.0764L19.6472 18.7236C19.986 18.893 20.2 19.2393 20.2 19.618V20.4Z" fill="#7F87A4" stroke="white" stroke-width="0.3"/>
<path d="M14.5681 7.57233C15.1663 7.98199 15.8746 8.2008 16.5997 8.19993C18.5879 8.19993 20.1997 6.58815 20.1997 4.59993C20.1995 2.88728 18.9927 1.41188 17.3142 1.07197C15.6356 0.732065 13.9499 1.62177 13.2835 3.19941C12.617 4.77705 13.1542 6.60583 14.5681 7.57233Z" fill="#D1373F"/>
</svg>
