<svg width="17" height="20" viewBox="0 0 17 20" fill="none" xmlns="http://www.w3.org/2000/svg">
<path d="M16.4894 4.13393L16.4412 3.74371L9.00009 1.03857L8.88887 1H8.66194L1.11544 3.74371L1.06723 4.13393C1.05373 4.24129 -0.177342 14.9333 8.50637 18.9409L8.6343 19H8.92101L9.04959 18.9409C17.7288 14.9333 16.5029 4.24129 16.4894 4.13393ZM8.77766 17.6461C2.0193 14.3258 2.16973 6.52986 2.30666 4.67907L8.77766 2.32621L15.2493 4.67907C15.3856 6.5305 15.5328 14.3258 8.77766 17.6461ZM11.99 8.71429H11.3484V7.42857C11.3484 5.54179 9.81009 4.85714 8.77702 4.85714V5.19979L8.77573 4.85714C7.74201 4.85714 6.2043 5.54179 6.2043 7.42857V8.71429H5.56144C5.20659 8.71429 4.91859 9.00229 4.91859 9.35714V13.2143C4.91859 13.5698 5.20659 13.8571 5.56144 13.8571H11.99C12.3455 13.8571 12.6329 13.5698 12.6329 13.2143V9.35714C12.6329 9.00229 12.3455 8.71429 11.99 8.71429ZM7.49002 7.42857C7.49002 6.256 8.47487 6.148 8.77894 6.14286C8.99687 6.14286 10.0627 6.20714 10.0627 7.42857V8.71429H7.49002V7.42857ZM11.3472 12.5714H6.2043V10H11.3472V12.5714Z" fill="#7F87A4" stroke="#7F87A4" stroke-width="0.2"/>
</svg>
