<svg width="20" height="20" viewBox="0 0 20 20" fill="none" xmlns="http://www.w3.org/2000/svg">
<path d="M6.23878 9.95514H1.94029C1.42179 9.95514 1 10.4813 1 11.1276V17.8274C1 18.4737 1.42179 18.9999 1.94029 18.9999H6.23878C6.75728 18.9999 7.17907 18.4735 7.17907 17.8274V11.1276C7.17907 10.4813 6.75728 9.95514 6.23878 9.95514ZM5.29848 12.3001V16.6547H2.88059V12.3001H5.29848Z" fill="#7F87A4" stroke="white" stroke-width="0.6"/>
<path d="M18.597 1H14.2985C13.7802 1 13.3584 1.42201 13.3584 1.94029V18.0596C13.3584 18.5779 13.7802 18.9999 14.2985 18.9999H18.597C19.1152 18.9999 19.5372 18.5779 19.5372 18.0596V1.94029C19.5372 1.42201 19.1152 1 18.597 1ZM17.6567 2.88059V17.1193H15.2388V2.88059H17.6567Z" fill="#7F87A4" stroke="white" stroke-width="0.6"/>
<path d="M12.4185 5.47754H8.11998C7.6017 5.47754 7.17969 5.92955 7.17969 6.48455V17.9928C7.17969 18.5478 7.60148 18.9999 8.11998 18.9999H12.4185C12.937 18.9999 13.3588 18.5478 13.3588 17.9928V6.48455C13.3588 5.92933 12.937 5.47754 12.4185 5.47754ZM11.4782 7.49156V16.9858H9.06027V7.49156H11.4782Z" fill="#7F87A4" stroke="white" stroke-width="0.6"/>
</svg>
