<svg width="11" height="9" viewBox="0 0 11 9" fill="none" xmlns="http://www.w3.org/2000/svg">
<path fill-rule="evenodd" clip-rule="evenodd" d="M6.16534 0.212905L6.21109 0.161091C6.40936 -0.0371748 6.72133 -0.0524262 6.93709 0.115337L6.98891 0.161091L10.8389 4.01109L10.8617 4.03527L10.892 4.07258L10.9314 4.13377L10.9608 4.19577L10.9803 4.2537L10.9962 4.33505L11 4.4L10.9985 4.44138L10.9889 4.5104L10.9726 4.57168L10.9485 4.63277L10.9197 4.68639L10.8792 4.744L10.8389 4.78891L6.98891 8.63891C6.77412 8.8537 6.42588 8.8537 6.21109 8.63891C6.01283 8.44064 5.99757 8.12867 6.16534 7.91291L6.21109 7.86109L9.1212 4.95H0.55C0.246243 4.95 0 4.70376 0 4.4C0 4.09624 0.246243 3.85 0.55 3.85H9.1223L6.21109 0.938909C6.01283 0.740642 5.99757 0.428666 6.16534 0.212905L6.21109 0.161091L6.16534 0.212905Z" fill="white"/>
</svg>
