<svg width="22" height="22" viewBox="0 0 22 22" fill="none" xmlns="http://www.w3.org/2000/svg">
<path fill-rule="evenodd" clip-rule="evenodd" d="M9.89758 1H12.0201C12.0843 1.00298 12.1406 1.01032 12.2197 1.02755C12.8002 1.15394 13.0209 1.36236 13.5611 2.63884L13.6491 2.84941L13.9886 3.69059L14.0165 3.70207L14.4539 3.50406C15.4066 3.07807 15.8976 2.89863 16.2278 2.84857L16.2962 2.83978L16.4209 2.83305C16.7182 2.83305 17.021 2.93836 17.2528 3.12171L17.3624 3.21976L18.7193 4.57106L18.8137 4.67076C19.2399 5.14029 19.2797 5.47316 18.8082 6.68634L18.6513 7.07772L18.2815 7.95268L18.2886 7.96977L19.1357 8.28611L19.5441 8.44751C20.599 8.87883 20.8158 9.1087 20.9568 9.63675C20.9852 9.74322 20.9953 9.81576 20.9986 9.9058L21 10.0036V11.9113C21 12.0469 20.9954 12.1235 20.962 12.2575C20.8216 12.8213 20.6132 13.0359 19.3455 13.5714L19.1363 13.6587L18.301 13.9959L18.2952 14.0099L18.5972 14.6698C19.3484 16.3393 19.3746 16.7053 18.8809 17.2551L18.8192 17.3221L17.4263 18.7139C17.1769 18.966 16.8217 19.1048 16.4779 19.1048C16.186 19.1048 15.7275 18.966 14.9459 18.6526L14.5275 18.4812L14.0509 18.2796L14.0236 18.2909L13.7773 18.9514C13.1744 20.54 12.9678 20.7979 12.3484 20.9577C12.2569 20.9814 12.1914 20.9914 12.1171 20.9955L11.9945 20.9981H10.0856C9.96649 20.9981 9.89925 20.9945 9.78092 20.9689C9.2007 20.8431 8.97914 20.6342 8.43787 19.357L8.34966 19.1463L8.0096 18.3047L7.98344 18.2939L7.34815 18.5794C6.332 19.0268 5.89179 19.1629 5.57806 19.1629C5.28426 19.1629 4.98508 19.0597 4.74708 18.8746L4.63349 18.7753L3.27843 17.422L3.12369 17.2533C2.75208 16.8161 2.73381 16.477 3.18994 15.31L3.42762 14.7258L3.71777 14.0438L3.71172 14.0291L3.05484 13.7843C1.73708 13.2843 1.33098 13.054 1.138 12.6335L1.0858 12.5012L1.0422 12.3547C1.01752 12.261 1.00699 12.1939 1.00272 12.1176L1 11.9917V10.0828C1 9.9461 1.00474 9.86884 1.03877 9.73366C1.16566 9.22967 1.34576 9.00584 2.29447 8.58072L2.68766 8.41092L3.69733 8.00262L3.70425 7.98581L3.32674 7.15288C2.70383 5.73802 2.65224 5.30722 3.04525 4.82607L3.09903 4.76294L3.22636 4.62798L4.57616 3.28124C4.82346 3.03257 5.1772 2.89238 5.5215 2.89238C5.76776 2.89238 6.12934 2.98982 6.70805 3.20901L7.29026 3.43981L7.95028 3.71643L7.97734 3.70517L8.22549 3.04036C8.83405 1.44037 9.05128 1.1728 9.69321 1.0291C9.77419 1.01097 9.83195 1.00324 9.89758 1ZM11.523 2.99811H10.4081L10.2509 3.36664C10.1912 3.51314 10.1238 3.68428 10.0478 3.88292L9.69932 4.81504C9.61575 5.03573 9.45736 5.21851 9.25375 5.33283L9.14832 5.38415L8.3292 5.725C8.1224 5.81106 7.89398 5.82472 7.6804 5.76611L7.55432 5.72227L6.58525 5.31379L6.06181 5.10506L5.70998 4.9752L4.91977 5.76362L5.01277 5.99853C5.04911 6.08701 5.09094 6.18593 5.13863 6.29614L5.2997 6.66141L5.70366 7.5445C5.80042 7.7548 5.82065 7.99074 5.76353 8.21221L5.71997 8.34303L5.38503 9.15696C5.29635 9.37245 5.13575 9.54903 4.93242 9.65793L4.82733 9.7066L3.73976 10.1438L3.19609 10.3768L3 10.4676V11.5978L3.23463 11.6995C3.32346 11.7367 3.42321 11.7772 3.53477 11.8214L3.90579 11.9653L4.80732 12.3001C5.03461 12.3821 5.22321 12.543 5.34018 12.7513L5.39255 12.8593L5.72753 13.6709C5.81356 13.8793 5.82615 14.1093 5.76566 14.3238L5.7206 14.4504L5.33182 15.3627L5.088 15.9645L4.96921 16.2841L5.75948 17.0733L5.99479 16.9803C6.08146 16.945 6.17645 16.9054 6.28 16.8612L7.00585 16.5412L7.5293 16.3002C7.74835 16.1955 7.99663 16.1747 8.22796 16.2389L8.342 16.2781L9.16593 16.6183C9.38432 16.7085 9.56252 16.8725 9.67074 17.0797L9.71888 17.1868L9.92392 17.7042L10.2157 18.4138L10.3846 18.8015L10.4762 18.9981H11.5944L11.7541 18.6217L11.9621 18.0905L12.3007 17.1825C12.3843 16.9598 12.5438 16.7755 12.7492 16.6607L12.8556 16.6093L13.676 16.2707C13.8804 16.1864 14.1058 16.1726 14.317 16.2294L14.4417 16.2719L15.2143 16.5996L15.7781 16.8292L16.0867 16.9482L16.2903 17.0219L17.0815 16.2322L16.929 15.8559L16.7004 15.3344L16.2956 14.452C16.1985 14.2413 16.1782 14.0049 16.2356 13.783L16.2793 13.6519L16.6137 12.8415C16.7019 12.6277 16.861 12.4522 17.0624 12.3433L17.1665 12.2945L18.0876 11.9243L18.5578 11.7271L18.6871 11.6709L19 11.5278V10.3987L18.6863 10.2648L18.2615 10.0967L17.1891 9.6975C16.9623 9.61499 16.7744 9.45381 16.658 9.24543L16.6059 9.13745L16.2715 8.32263C16.1862 8.11475 16.1738 7.8855 16.2341 7.67166L16.279 7.5455L16.5895 6.81961C16.6703 6.62765 16.7406 6.45742 16.8014 6.30696L16.9103 6.03183L17.029 5.71032L16.2384 4.92293L16.0029 5.01609C15.8727 5.06919 15.7235 5.13221 15.5542 5.2058L15.3782 5.28294L14.4554 5.70151C14.2454 5.79771 14.0101 5.81772 13.7891 5.76074L13.6586 5.71731L12.8352 5.37885C12.6196 5.29025 12.443 5.1297 12.334 4.9264L12.2853 4.82132L11.9942 4.09293L11.7832 3.58263L11.6663 3.31124L11.523 2.99811ZM11.0005 6.99811C13.2066 6.99811 15 8.79113 15 10.9972C15 13.2035 13.2065 14.9981 11.0005 14.9981C8.79382 14.9981 7 13.2038 7 10.9972C7 8.79081 8.79369 6.99811 11.0005 6.99811ZM11.0005 8.99811C9.89801 8.99811 9 9.89563 9 10.9972C9 12.0994 9.89851 12.9981 11.0005 12.9981C12.1016 12.9981 13 12.0992 13 10.9972C13 9.89579 12.1021 8.99811 11.0005 8.99811Z" fill="#7F87A4" stroke="white" stroke-width="0.5"/>
</svg>
