<svg width="22" height="20" viewBox="0 0 22 20" fill="none" xmlns="http://www.w3.org/2000/svg">
<path d="M12.1176 1C7.45882 1 3.60471 4.55765 3.16 9.11059H1.88941C1.40235 9.11059 1 9.51294 1 10C1 10.4871 1.40235 10.8894 1.88941 10.8894H8.75059C9.08941 10.8894 9.38588 10.6988 9.53412 10.4024L10.2753 8.96235L12.5412 13.3459C12.6894 13.6424 12.9859 13.8329 13.3247 13.8329C13.6635 13.8329 13.96 13.6424 14.1082 13.3459L15.3788 10.8682H16.6494C17.1365 10.8682 17.5388 10.4659 17.5388 9.97882C17.5388 9.49177 17.1365 9.08941 16.6494 9.08941H14.8494C14.5106 9.08941 14.2141 9.28 14.0659 9.57647L13.3247 11.0165L11.0588 6.65412C10.7624 6.06118 9.78823 6.06118 9.49176 6.65412L8.22118 9.13177H4.93882C5.38353 5.55294 8.43294 2.77882 12.1176 2.77882C16.0988 2.77882 19.36 6.01882 19.36 10.0212C19.36 14.0235 16.0988 17.2424 12.1176 17.2424C9.11059 17.2424 6.50588 15.3788 5.42588 12.7529H3.54118C4.70588 16.3741 8.11529 19 12.1176 19C17.0729 19 21.1176 14.9553 21.1176 10C21.1176 5.04471 17.0729 1 12.1176 1Z" fill="#7F87A4" stroke="white" stroke-width="0.3"/>
</svg>
